<?xml version="1.0" encoding="UTF-8"?>
<svg id="Layer_1" data-name="Layer 1" xmlns="http://www.w3.org/2000/svg" viewBox="0 0 216 216">
  <defs>
    <style>
      .cls-1 {
        fill: #fedd00;
        stroke-width: 0px;
      }
    </style>
  </defs>
  <rect class="cls-1" x="97.82" y="138.87" width="20.37" height="10.23" rx="1.03" ry="1.03"/>
  <rect class="cls-1" x="92.06" y="152.13" width="31.82" height="5.09" rx="1.03" ry="1.03"/>
  <g>
    <path class="cls-1" d="M163.26,58.78H52.73c-4.12,0-7.47,3.34-7.47,7.47v62.17c.03,4.11,3.37,7.43,7.48,7.42h110.53c4.12,0,7.47-3.34,7.47-7.47v-62.12h0c0-4.13-3.35-7.47-7.48-7.47ZM163.88,129.64H52.12v-64.68h111.77v64.68Z"/>
    <path class="cls-1" d="M154.7,70.79H61.3c-.99,0-1.79.8-1.79,1.79v49.44c0,.99.8,1.79,1.79,1.79h93.39c.99,0,1.79-.8,1.79-1.79v-49.44c0-.99-.8-1.79-1.79-1.79ZM73.03,80.47h29.63c.83,0,1.5.67,1.5,1.5v1.43c0,.83-.67,1.5-1.5,1.5h-29.63c-.83,0-1.5-.67-1.5-1.5v-1.43c0-.83.67-1.5,1.5-1.5ZM135.32,114.14h-53.88c-.83,0-1.5-.67-1.5-1.5v-1.43c0-.83.67-1.5,1.5-1.5h53.88c.83,0,1.5.67,1.5,1.5v1.43c0,.83-.67,1.5-1.5,1.5ZM79.94,102.9v-1.43c0-.83.67-1.5,1.5-1.5h45.45c.83,0,1.5.67,1.5,1.5v1.43c0,.83-.67,1.5-1.5,1.5h-45.45c-.83,0-1.5-.67-1.5-1.5ZM142.97,94.64h-65.73c-.83,0-1.5-.67-1.5-1.5v-1.43c0-.83.67-1.5,1.5-1.5h65.73c.83,0,1.5.67,1.5,1.5v1.43c0,.83-.67,1.5-1.5,1.5Z"/>
  </g>
  <path class="cls-1" d="M108,4.06c57.31,0,103.94,46.63,103.94,103.94s-46.63,103.94-103.94,103.94S4.06,165.31,4.06,108,50.69,4.06,108,4.06M108,1.21C49.02,1.21,1.21,49.02,1.21,108s47.81,106.79,106.79,106.79,106.79-47.81,106.79-106.79S166.98,1.21,108,1.21h0Z"/>
</svg>