<?xml version="1.0" encoding="UTF-8"?>
<svg id="Layer_1" data-name="Layer 1" xmlns="http://www.w3.org/2000/svg" viewBox="0 0 216 216">
  <defs>
    <style>
      .cls-1 {
        fill: #b187b8;
        stroke-width: 0px;
      }
    </style>
  </defs>
  <path class="cls-1" d="M108.93,1.22C49.22.71.71,49.22,1.22,108.93c.49,57.98,47.87,105.36,105.85,105.85,59.71.51,108.22-48,107.71-107.71C214.29,49.09,166.91,1.71,108.93,1.22ZM111.45,211.88c-60.03,1.95-109.28-47.3-107.33-107.33C5.89,50.09,50.09,5.89,104.55,4.12c60.03-1.95,109.28,47.3,107.33,107.33-1.77,54.46-45.97,98.66-100.43,100.43Z"/>
  <path class="cls-1" d="M149.22,110.21c.88,2.19,3.02,3.74,5.52,3.74,3.28,0,5.95-2.66,5.95-5.95s-2.66-5.95-5.95-5.95c-2.5,0-4.64,1.55-5.52,3.74h-40.71v-8.57h19.45c.94,0,1.85-.26,2.64-.75l11.4-7.04c.1-.06.21-.09.32-.09h4.2c.88,2.19,3.02,3.74,5.52,3.74,3.28,0,5.95-2.66,5.95-5.95s-2.66-5.95-5.95-5.95c-2.5,0-4.64,1.55-5.52,3.74h-4.2c-.94,0-1.85.26-2.64.75l-11.4,7.04c-.1.06-.21.09-.32.09h-19.45v-8.99h14.1c1.17,0,2.32-.41,3.22-1.16l10.09-8.39c.8.4,1.71.64,2.67.64,3.28,0,5.95-2.66,5.95-5.95s-2.66-5.95-5.95-5.95-5.95,2.66-5.95,5.95c0,.7.13,1.37.35,2l-9.99,8.3c-.11.09-.25.14-.39.14h-14.1v-3.76c0-1.19-.96-2.15-2.15-2.15-5.19,0-11.13-2.51-14.39-6.04-3.48-3.85,0-7.33,3.64-3.53,2.59,2.71,5.61,4.04,11.2,4.53.04,0,.07,0,.11,0h0s10.1.01,10.1.01c2.78,0,5.03-2.26,5.03-5.03v-1.85c2.19-.88,3.74-3.02,3.74-5.52,0-3.28-2.66-5.95-5.95-5.95s-5.95,2.66-5.95,5.95c0,2.5,1.55,4.64,3.74,5.52v1.85c0,.34-.27.61-.61.61h-8.5v-3.54c-.45-3.3-1.26-5.21-2.96-7.01-3.53-3.74-9.95-4.65-15.08-2.09-5.99,3-12.2,11.23-13.1,17.54-.96,6.31,3.1,11.07,11.23,13.05,4.39,1.12,5.08,1.5,5.08,2.94,0,2.09-1.44,3.16-3.69,2.73-3.8-.64-8.5-2.46-10.97-4.23-4.01-2.83-6.74-7.33-6.74-11.07,0-2.03-.91-1.98-3.85.27-5.3,4.07-7.7,10.32-7.22,18.56.21,3.53.11,5.35-.32,5.78-.96.96-2.94.7-3.8-.59-2.09-3-4.33,3.16-4.33,11.87,0,5.56.16,6.42,1.44,9.25.86,1.87,2.89,4.6,4.97,6.74,2.46,2.57,3.48,4.01,3.48,5.03,0,1.77-1.66,2.78-3.16,1.98-1.71-.86-1.82-.7-1.5,2.41.37,3.8,3.16,9.36,5.83,11.82,2.25,1.98,8.02,5.03,9.68,5.03.7,0,.91-.43.91-1.77,0-.91.59-3.42,1.28-5.46,1.5-4.23,1.71-3.58-2.94-8.56-2.94-3.21-3.32-4.07-2.3-5.56,1.34-1.87,2.78-1.34,6.2,2.35,1.82,1.93,3.48,3.48,3.74,3.48.21,0,1.77-1.07,3.42-2.41,3-2.46,7.81-5.13,11.66-6.47,1.82-.64,2.25-.64,3.37.05,1.44.96,1.6,2.51.37,3.53-.48.37-2.25,1.34-3.9,2.09-8.18,3.74-11.55,6.47-14.01,11.5-1.5,3.1-1.66,3.8-1.5,7.6.16,3.32.53,4.81,1.77,7.22,1.98,3.9,5.99,7.97,9.57,9.74,5.4,2.73,13.96,1.34,16.42-2.62.51-.8.78-1.54.92-2.86v-10.61s8.56,0,8.56,0c.34,0,.61.27.61.61v3.88c-2.37.79-4.07,3.01-4.07,5.64,0,3.28,2.66,5.95,5.95,5.95s5.95-2.66,5.95-5.95c0-2.37-1.39-4.41-3.4-5.37v-4.15c0-2.78-2.26-5.03-5.03-5.03h-9.35v.02s-.04-.01-.07,0c-6.24.54-10.01,2.39-12.58,5.25-1.71,1.93-4.6,1.18-4.6-1.12,0-3.9,8.83-8.99,15.62-8.99,1.34,0,2.42-1.08,2.42-2.42v-4.07h14.23c.15,0,.28.05.4.15l10.06,8.51c-.29.7-.45,1.46-.45,2.26,0,3.28,2.66,5.95,5.95,5.95s5.95-2.66,5.95-5.95-2.66-5.95-5.95-5.95c-.86,0-1.67.19-2.41.51l-10.3-8.71c-.91-.77-2.06-1.19-3.25-1.19h-14.23v-7.99h19.67c.11,0,.23.03.32.09l10.92,6.78c.8.5,1.71.76,2.65.76h4.63c.8,2.34,3.01,4.02,5.62,4.02,3.28,0,5.95-2.66,5.95-5.95s-2.66-5.95-5.95-5.95c-2.39,0-4.45,1.42-5.4,3.46h-4.85c-.11,0-.23-.03-.32-.09l-10.92-6.78c-.8-.5-1.72-.76-2.65-.76h-19.67v-1.13c0-1.51-1.15-2.77-2.66-2.9-.19-.02-.4-.03-.62-.05-4.6-.37-7.43-1.82-11.93-5.94-4.97-4.6-6.47-5.3-11.39-5.62l-4.01-.21-1.28,2.51c-1.44,2.78-5.4,6.53-7.44,7.06-1.71.43-3-.43-3.21-2.03-.11-1.02.53-1.87,2.89-3.9,4.97-4.33,5.56-7.38,2.03-11.45-2.57-3-2.3-5.46.64-5.46,1.44,0,5.19,4.01,6.15,6.58l.7,1.93,3.58-.05c5.83-.05,8.13.96,14.12,6.37,4.09,3.72,4.84,4.93,11.67,5.33.04,0,.07-.01.11-.02v.03h41.36Z"/>
</svg>