<?xml version="1.0" encoding="UTF-8"?>
<svg id="Layer_1" data-name="Layer 1" xmlns="http://www.w3.org/2000/svg" viewBox="0 0 214.1 214.1">
  <defs>
    <style>
      .cls-1 {
        fill: #29afe5;
      }
    </style>
  </defs>
  <path class="cls-1" d="m107.05,2.85c57.45,0,104.19,46.74,104.19,104.19s-46.74,104.19-104.19,104.19S2.85,164.5,2.85,107.05,49.6,2.85,107.05,2.85m0-2.85C47.93,0,0,47.93,0,107.05s47.93,107.05,107.05,107.05,107.05-47.93,107.05-107.05S166.17,0,107.05,0h0Z"/>
  <g>
    <path class="cls-1" d="m120.56,122.25c0,.83-.67,1.5-1.5,1.5s-1.5-.67-1.5-1.5v-4.38c0-.36-.29-.66-.66-.66h-1.75c-.36,0-.66.29-.66.66v4.38c0,.83-.67,1.5-1.5,1.5s-1.5-.67-1.5-1.5v-4.38c0-.36-.29-.66-.66-.66h-1.81c-.36,0-.66.29-.66.66v4.38c0,.83-.67,1.5-1.5,1.5s-1.5-.67-1.5-1.5v-4.38c0-.36-.29-.66-.66-.66h-1.81c-.36,0-.66.29-.66.66v4.38c0,.83-.67,1.5-1.5,1.5s-1.5-.67-1.5-1.5v-4.38c0-.36-.29-.66-.66-.66h-1.75c-.36,0-.66.29-.66.66v4.38c0,.83-.67,1.5-1.5,1.5s-1.5-.67-1.5-1.5v-4.38c0-.36-.29-.66-.66-.66h-1.78c-.36,0-.66.29-.66.66v15.75c0,.36.29.66.66.66h1.17c1.19,0,2.16.97,2.16,2.16v2.17c0,.36.29.66.66.66h2.84c1.19,0,2.16.97,2.16,2.16v2.28c0,.36.29.66.66.66h12.97c.36,0,.66-.29.66-.66v-2.28c0-1.19.97-2.16,2.16-2.16h2.84c.36,0,.66-.29.66-.66v-2.17c0-1.19.97-2.16,2.16-2.16h1.17c.36,0,.66-.29.66-.66v-15.75c0-.36-.29-.66-.66-.66h-1.78c-.36,0-.66.29-.66.66v4.38Z"/>
    <path class="cls-1" d="m146.42,91.23h-3.96v-11.16c0-19.95-16.33-36.67-36.28-36.3s-34.93,16.16-34.93,35.6v11.87h-3.96c-4.72,0-8.95,2.07-11.85,5.34-.15.17-.1.63-.25.81s-.49.09-.63.28c-1.95,2.63-3.1,5.88-3.1,9.4v47.47c0,8.73,7.08,15.82,15.82,15.82h79.12c8.74,0,15.82-7.08,15.82-15.82v-47.47c0-8.74-7.08-15.82-15.82-15.82Zm-59.34-11.87c0-11.16,9.24-20.16,20.49-19.77,10.72.38,19.07,9.51,19.07,20.24v11.4h-39.56v-11.87Zm46.82,67.6c0,2.42-1.96,4.39-4.39,4.39h-45.31c-2.41,0-4.39-1.97-4.39-4.39v-32.34c0-2.42,1.97-4.39,4.39-4.39h45.31c2.42,0,4.39,1.96,4.39,4.39v32.34Z"/>
  </g>
</svg>