<?xml version="1.0" encoding="UTF-8"?>
<svg id="Layer_1" data-name="Layer 1" xmlns="http://www.w3.org/2000/svg" viewBox="0 0 216 216">
  <defs>
    <style>
      .cls-1 {
        fill: #8fab3d;
        stroke-width: 0px;
      }
    </style>
  </defs>
  <path class="cls-1" d="M108,3.8c57.55,0,104.2,46.65,104.2,104.2s-46.65,104.2-104.2,104.2S3.8,165.55,3.8,108h0C3.86,50.48,50.48,3.86,108,3.8M108,.95C48.88.95.95,48.88.95,108s47.93,107.05,107.05,107.05,107.05-47.93,107.05-107.05S167.12.95,108,.95Z"/>
  <g>
    <path class="cls-1" d="M129.53,152.3c-6.75-1.23-14.05-3.55-21.53-6.8-7.51,3.28-14.79,5.59-21.53,6.8.21.47.42.95.66,1.42,5.46,11.53,12.74,17.31,20.88,17.31s15.42-5.78,20.88-17.28c.21-.47.45-.95.66-1.42v-.03ZM108,175.23c-11.24,0-20.06-8.59-25.84-22.27-13.84,1.6-24.95-1.79-30.25-11.34-5.44-9.74-2.47-21.74,6.2-33.61-8.67-11.87-11.63-23.87-6.2-33.61,5.3-9.53,16.41-12.95,30.25-11.34,5.78-13.68,14.6-22.27,25.84-22.27s20.06,8.59,25.84,22.27c13.84-1.6,24.95,1.79,30.25,11.34,5.44,9.74,2.47,21.74-6.2,33.61,8.67,11.87,11.63,23.87,6.2,33.61-5.3,9.53-16.41,12.95-30.25,11.34-5.78,13.68-14.63,22.27-25.84,22.27h0ZM102.83,143.11c-3.65-1.79-7.33-3.78-11.03-5.99-4.12-2.47-8.04-5.07-11.69-7.75,1.05,6.99,2.65,13.39,4.73,18.99,5.59-.95,11.66-2.7,17.99-5.23v-.03ZM131.16,148.34c2.05-5.57,3.65-11.98,4.73-18.99-3.65,2.7-7.56,5.3-11.69,7.75-3.68,2.21-7.38,4.2-11.03,5.99,6.33,2.52,12.4,4.28,17.99,5.23v.03ZM122.05,133.53c5.28-3.15,10.16-6.51,14.6-10.01.53-4.94.79-10.14.79-15.49s-.26-10.56-.79-15.49c-4.44-3.49-9.32-6.85-14.6-10.01-4.73-2.84-9.43-5.3-14.02-7.41-4.6,2.1-9.3,4.57-14.02,7.41-5.28,3.15-10.16,6.51-14.6,10.01-.53,4.94-.79,10.14-.79,15.49s.26,10.56.79,15.49c4.44,3.49,9.32,6.85,14.6,10.01,4.73,2.84,9.43,5.3,14.02,7.41,4.6-2.1,9.3-4.57,14.02-7.41ZM135.44,148.91c.24.03.47.05.71.05,12.16,1.02,20.38-2.36,24.29-9.4,3.97-7.12,2.6-16.36-4.36-26.87-.29-.42-.55-.84-.87-1.26-4.02,4.86-8.93,9.66-14.6,14.23-1,8.53-2.76,16.39-5.17,23.19v.05ZM141.19,119.74c4.41-3.86,8.25-7.8,11.4-11.74-3.15-3.94-7.01-7.88-11.42-11.74.29,3.81.45,7.72.45,11.74s-.16,7.93-.45,11.74h.03ZM156.06,103.27c6.99-10.5,8.32-19.75,4.36-26.87-3.91-7.01-12.16-10.37-24.29-9.38-.24.03-.47.05-.71.05,2.42,6.83,4.18,14.68,5.17,23.19,5.67,4.6,10.58,9.38,14.6,14.23.29-.42.58-.84.87-1.26v.03ZM128.88,62.25c-5.46-11.5-12.74-17.28-20.88-17.28s-15.42,5.78-20.88,17.28c-.21.47-.45.95-.66,1.42,6.75,1.23,14.05,3.55,21.53,6.8,7.51-3.28,14.79-5.59,21.53-6.8-.21-.47-.42-.95-.66-1.42ZM131.14,67.66c-5.59.95-11.66,2.7-17.99,5.23,3.65,1.79,7.33,3.78,11.03,5.99,4.12,2.47,8.04,5.07,11.69,7.75-1.05-6.99-2.65-13.39-4.73-18.99v.03ZM84.81,67.66c-2.05,5.57-3.65,11.98-4.73,18.99,3.65-2.7,7.56-5.28,11.69-7.75,3.68-2.21,7.38-4.2,11.03-5.99-6.33-2.52-12.4-4.28-17.99-5.23v-.03ZM80.56,67.09c-.24-.03-.47-.05-.71-.05-12.16-1.02-20.38,2.36-24.29,9.38-3.94,7.12-2.57,16.39,4.39,26.87.29.42.55.84.87,1.26,4.02-4.86,8.93-9.66,14.6-14.23,1-8.53,2.76-16.39,5.17-23.19l-.03-.03ZM75.38,125.7c-5.67-4.6-10.58-9.38-14.6-14.23-.29.42-.58.84-.87,1.26-6.99,10.5-8.32,19.75-4.36,26.87,3.94,7.01,12.19,10.37,24.32,9.38.24-.03.47-.05.71-.05-2.42-6.83-4.18-14.68-5.17-23.19l-.03-.03ZM74.83,96.26c-4.44,3.86-8.27,7.8-11.42,11.74,3.15,3.94,7.01,7.88,11.42,11.74-.29-3.81-.45-7.75-.45-11.74s.16-7.93.45-11.74Z"/>
    <g>
      <ellipse class="cls-1" cx="108.03" cy="93.88" rx="15.44" ry="3.73"/>
      <path class="cls-1" d="M108.03,99.45s-13.88.1-15.44-3.48v7.48s.63,3.42,15.44,3.42,15.44-3.42,15.44-3.42v-7.48c-1.56,3.58-15.44,3.48-15.44,3.48Z"/>
      <path class="cls-1" d="M108.03,108.66s-13.88.1-15.44-3.48v7.48s.63,3.42,15.44,3.42,15.44-3.42,15.44-3.42v-7.48c-1.56,3.58-15.44,3.48-15.44,3.48Z"/>
      <path class="cls-1" d="M108.03,117.86s-13.88.1-15.44-3.48v7.48s.63,3.42,15.44,3.42,15.44-3.42,15.44-3.42v-7.48c-1.56,3.58-15.44,3.48-15.44,3.48Z"/>
    </g>
  </g>
</svg>