<?xml version="1.0" encoding="UTF-8"?>
<svg id="Layer_1" data-name="Layer 1" xmlns="http://www.w3.org/2000/svg" viewBox="0 0 216 216">
  <defs>
    <style>
      .cls-1 {
        fill: #f9a719;
        stroke-width: 0px;
      }
    </style>
  </defs>
  <path class="cls-1" d="M157.08,96.64l-7.68-1.42c-.79-2.57-1.82-5.06-3.08-7.44l4.52-6.33c1.93-2.69,1.62-6.38-.73-8.7l-6.81-6.81c-1.26-1.27-2.98-1.99-4.77-1.98-1.4,0-2.77.43-3.9,1.25l-6.34,4.52c-2.47-1.3-5.05-2.36-7.72-3.18l-1.28-7.58c-.52-3.28-3.35-5.7-6.67-5.7h-9.62c-3.32,0-6.15,2.42-6.67,5.7l-1.32,7.75c-2.57.81-5.05,1.86-7.42,3.13l-6.28-4.52c-2.68-1.94-6.37-1.63-8.69.73l-6.84,6.8c-2.33,2.34-2.64,6.01-.73,8.7l4.57,6.52c-1.25,2.38-2.27,4.88-3.05,7.46l-7.58,1.28c-3.28.51-5.7,3.34-5.7,6.67v9.6c0,3.32,2.41,6.15,5.7,6.67l7.76,1.32c.8,2.57,1.85,5.06,3.13,7.42l-4.5,6.27c-1.93,2.68-1.62,6.37.73,8.69l6.81,6.81c1.27,1.25,2.99,1.93,4.77,1.91,1.4,0,2.77-.43,3.9-1.25l6.42-4.56c2.29,1.2,4.69,2.2,7.17,2.96l1.28,7.68c.52,3.28,3.35,5.7,6.67,5.7h9.63c3.32,0,6.15-2.41,6.67-5.7l1.4-7.68c2.57-.79,5.06-1.82,7.44-3.08l6.33,4.52c2.69,1.91,6.37,1.61,8.7-.73l6.81-6.81c2.33-2.34,2.64-6.01.73-8.7l-4.52-6.34c1.23-2.35,2.23-4.81,3.01-7.35l7.68-1.28c3.28-.51,5.7-3.34,5.7-6.67v-9.67c0-3.28-2.38-6.08-5.63-6.6ZM108.01,135.3c-15.06,0-27.26-12.22-27.25-27.28,0-15.06,12.22-27.26,27.28-27.25,15.05,0,27.25,12.21,27.25,27.27s-12.21,27.27-27.27,27.27h-.01ZM92.06,109.93v-2.21c0-.14.08-.27.21-.31l9.69-3.65c.13,0,.23,0,.23.13v2.85c0,.14,0,.21-.23.28l-5.26,1.79h0l5.26,1.79c.19,0,.23.13.23.27v2.85c0,.14-.1.19-.23.14l-9.62-3.65c-.16-.01-.28-.14-.28-.3ZM108.56,99.96c.03-.13.14-.22.27-.21h3.11c.13,0,.19.09.14.21l-4.59,14.8c-.02.14-.15.24-.28.23h-3.09c-.13,0-.19-.09-.14-.23l4.59-14.8ZM113.85,110.88c0-.14.07-.21.21-.27l5.29-1.79h0l-5.29-1.79c-.14,0-.21-.14-.21-.28v-2.85c0-.13.09-.17.21-.13l9.7,3.6c.13.04.22.17.21.31v2.21c0,.14-.09.26-.21.3l-9.7,3.62c-.13,0-.21,0-.21-.14v-2.78Z"/>
  <path class="cls-1" d="M108,4.06c57.41,0,103.94,46.54,103.94,103.94s-46.54,103.94-103.94,103.94S4.06,165.41,4.06,108h0C4.12,50.62,50.62,4.12,108,4.06M108,1.21C49.02,1.21,1.21,49.02,1.21,108s47.81,106.79,106.79,106.79,106.79-47.81,106.79-106.79S166.98,1.21,108,1.21Z"/>
</svg>